<svg width="15" height="15" viewBox="0 0 15 15" fill="none" xmlns="http://www.w3.org/2000/svg">
<path d="M7.5 3.10547C5.077 3.10547 3.10547 5.077 3.10547 7.5C3.10547 9.923 5.077 11.8945 7.5 11.8945C9.923 11.8945 11.8945 9.923 11.8945 7.5C11.8945 5.077 9.923 3.10547 7.5 3.10547Z" fill="white"/>
<path d="M12.0615 10.1367C11.6045 10.9365 10.9278 11.6045 10.1279 12.0703L12.7734 12.7822L12.0615 10.1367Z" fill="white"/>
<path d="M7.49997 0L6.14648 2.4111C6.57715 2.28809 7.03412 2.22656 7.49997 2.22656C7.96582 2.22656 8.42282 2.28809 8.85349 2.4111L7.49997 0Z" fill="white"/>
<path d="M2.22656 2.22656L2.93848 4.86328C3.39554 4.06345 4.05472 3.40427 4.85449 2.93848L2.22656 2.22656Z" fill="white"/>
<path d="M2.41113 6.1377L0.00878906 7.5L2.41113 8.8623C2.28809 8.43164 2.22653 7.97461 2.22653 7.5C2.22653 7.02536 2.28806 6.56836 2.41113 6.1377Z" fill="white"/>
<path d="M2.93848 10.1367L2.22656 12.7822L4.87207 12.0703C4.07227 11.6045 3.39554 10.9365 2.93848 10.1367Z" fill="white"/>
<path d="M7.50001 12.7734C7.02542 12.7734 6.56836 12.7119 6.12891 12.5888L7.50001 15L8.8711 12.5888C8.43165 12.7119 7.97459 12.7734 7.50001 12.7734Z" fill="white"/>
<path d="M10.1416 2.94292C10.9367 3.40567 11.5993 4.06881 12.061 4.86469L12.7766 2.22784L10.1416 2.94292Z" fill="white"/>
<path d="M14.9914 7.50429L12.5905 6.1452C12.706 6.57839 12.7735 7.03094 12.7735 7.50001C12.7735 7.97272 12.7051 8.42881 12.5879 8.86505L14.9914 7.50429Z" fill="white"/>
</svg>
