<svg width="15" height="15" viewBox="0 0 15 15" fill="none" xmlns="http://www.w3.org/2000/svg">
<path d="M7.49988 3.10547C5.07688 3.10547 3.10535 5.077 3.10535 7.5C3.10535 9.923 5.07688 11.8945 7.49988 11.8945C9.92288 11.8945 11.8944 9.923 11.8944 7.5C11.8944 5.077 9.92288 3.10547 7.49988 3.10547Z" fill="#333333"/>
<path d="M12.0614 10.1367C11.6044 10.9365 10.9276 11.6045 10.1278 12.0703L12.7733 12.7822L12.0614 10.1367Z" fill="#333333"/>
<path d="M7.49985 0L6.14636 2.4111C6.57703 2.28809 7.034 2.22656 7.49985 2.22656C7.9657 2.22656 8.4227 2.28809 8.85336 2.4111L7.49985 0Z" fill="#333333"/>
<path d="M2.22644 2.22656L2.93835 4.86328C3.39541 4.06345 4.05459 3.40427 4.85437 2.93848L2.22644 2.22656Z" fill="#333333"/>
<path d="M2.41101 6.1377L0.00866699 7.5L2.41101 8.8623C2.28796 8.43164 2.22641 7.97461 2.22641 7.5C2.22641 7.02536 2.28793 6.56836 2.41101 6.1377Z" fill="#333333"/>
<path d="M2.93835 10.1367L2.22644 12.7822L4.87195 12.0703C4.07214 11.6045 3.39542 10.9365 2.93835 10.1367Z" fill="#333333"/>
<path d="M7.49988 12.7734C7.0253 12.7734 6.56824 12.7119 6.12878 12.5888L7.49988 15L8.87098 12.5888C8.43153 12.7119 7.97447 12.7734 7.49988 12.7734Z" fill="#333333"/>
<path d="M10.1414 2.94292C10.9365 3.40567 11.5991 4.06881 12.0607 4.86469L12.7763 2.22784L10.1414 2.94292Z" fill="#333333"/>
<path d="M14.9913 7.50429L12.5904 6.1452C12.7059 6.57839 12.7733 7.03094 12.7733 7.50001C12.7733 7.97272 12.705 8.42881 12.5878 8.86505L14.9913 7.50429Z" fill="#333333"/>
</svg>
